Coordinates
version=1
nRows=21
nColumns=22
inDegrees=yes

Units are S.I. units (second, meters, Newtons, ...)
If the header above contains a line with 'inDegrees', this indicates whether rotational values are in degrees (yes) or radians (no).

endheader
time	pelvis_tilt	pelvis_list	pelvis_rotation	pelvis_tx	pelvis_ty	pelvis_tz	hip_flexion_r	hip_adduction_r	hip_rotation_r	knee_angle_r	ankle_angle_r	subtalar_angle_r	hip_flexion_l	hip_adduction_l	hip_rotation_l	knee_angle_l	ankle_angle_l	subtalar_angle_l	lumbar_extension	lumbar_bending	lumbar_rotation
      0.01000000	    -11.64917105	     -2.22516966	     -1.54311985	     -0.52398849	      0.98084901	      0.45857536	     18.63150795	      4.14047121	     -1.45747415	    -18.68376362	     16.67671996	     -7.89895012	     19.12177305	     -2.49146295	     -2.90027693	    -19.20947002	     18.68647189	     -1.91810661	      5.32416573	      3.68466904	      3.30821681
      0.02000000	    -11.66041020	     -2.26639061	     -1.58141911	     -0.52409859	      0.98082839	      0.45842328	     18.62512516	      4.18343354	     -1.43052497	    -18.63362793	     16.63941380	     -7.85534013	     19.16568886	     -2.53799414	     -2.94367524	    -19.26514587	     18.71943617	     -1.92341856	      5.32661870	      3.73680403	      3.28348629
      0.03000000	    -11.66668073	     -2.26731381	     -1.61691818	     -0.52422007	      0.98081456	      0.45822213	     18.62604121	      4.17842046	     -1.41177394	    -18.60540863	     16.63170096	     -7.84298714	     19.19052147	     -2.53533936	     -2.98030630	    -19.29073520	     18.73190470	     -1.93274565	      5.32398685	      3.73926822	      3.24484454
      0.04000000	    -11.68714345	     -2.28160464	     -1.67990826	     -0.52435383	      0.98077758	      0.45804585	     18.64442769	      4.19589824	     -1.36646901	    -18.57942539	     16.61218020	     -7.81424318	     19.23529567	     -2.55814157	     -3.05540091	    -19.33291238	     18.75270250	     -1.96323709	      5.33973738	      3.76244037	      3.23922350
      0.05000000	    -11.69233496	     -2.27882692	     -1.72389518	     -0.52445973	      0.98077120	      0.45781202	     18.65117949	      4.18505674	     -1.34834844	    -18.56609555	     16.60290130	     -7.80720230	     19.24599248	     -2.55152754	     -3.10051372	    -19.33863531	     18.75898919	     -1.97291014	      5.34475236	      3.76689944	      3.18458642
      0.06000000	    -11.71115564	     -2.27210249	     -1.79705638	     -0.52456857	      0.98074464	      0.45763761	     18.67193961	      4.18261010	     -1.29056816	    -18.54849439	     16.58301708	     -7.78386451	     19.27748780	     -2.55642271	     -3.20449220	    -19.36549384	     18.76432143	     -2.00509383	      5.36625772	      3.76441091	      3.18053167
      0.07000000	    -11.71636240	     -2.26781650	     -1.84482829	     -0.52464263	      0.98074578	      0.45740048	     18.68259479	      4.17050064	     -1.27094061	    -18.54520320	     16.57542514	     -7.77733736	     19.27402304	     -2.54874765	     -3.25410786	    -19.34965363	     18.76824001	     -2.01328451	      5.37778753	      3.76910524	      3.12199870
      0.08000000	    -11.72774915	     -2.23967138	     -1.92518001	     -0.52468946	      0.98074496	      0.45720937	     18.69840233	      4.14464275	     -1.20165984	    -18.53841658	     16.56039527	     -7.75105175	     19.27501888	     -2.53031852	     -3.36755630	    -19.34362998	     18.75944420	     -2.04140802	      5.40200405	      3.74797592	      3.12076299
      0.09000000	    -11.73153996	     -2.21850161	     -1.98983701	     -0.52470617	      0.98076062	      0.45699219	     18.70708707	      4.11977408	     -1.15654053	    -18.53867788	     16.55581665	     -7.72950738	     19.25571558	     -2.51021455	     -3.44280932	    -19.31355357	     18.75578329	     -2.06065557	      5.42208996	      3.73607686	      3.08686619
      0.10000000	    -11.73194458	     -2.21466615	     -2.03792077	     -0.52471755	      0.98077924	      0.45673982	     18.71427327	      4.10594270	     -1.13756223	    -18.54611501	     16.55025705	     -7.72347526	     19.23555000	     -2.49964608	     -3.48069328	    -19.28519204	     18.75711908	     -2.06613217	      5.43678678	      3.74700957	      3.03016113
      0.11000000	    -11.72995420	     -2.17634147	     -2.11482001	     -0.52468389	      0.98081278	      0.45655409	     18.71089183	      4.06955583	     -1.06202891	    -18.53905534	     16.53834020	     -7.69291447	     19.20000629	     -2.46555443	     -3.57481143	    -19.24548115	     18.74440712	     -2.09369799	      5.45412722	      3.71236435	      3.01949530
      0.12000000	    -11.72859824	     -2.17620944	     -2.16120385	     -0.52466943	      0.98083325	      0.45630898	     18.71716968	      4.06068224	     -1.04066640	    -18.55174938	     16.53616853	     -7.68681332	     19.17606137	     -2.45720244	     -3.60267495	    -19.21661786	     18.74688177	     -2.09978554	      5.46712720	      3.72636418	      2.96393872
      0.13000000	    -11.72442725	     -2.15027580	     -2.22730043	     -0.52460775	      0.98086808	      0.45611550	     18.70568917	      4.03627166	     -0.96429330	    -18.53899219	     16.52626223	     -7.65458582	     19.13933284	     -2.43071981	     -3.67077700	    -19.17997738	     18.74210255	     -2.13159051	      5.48212704	      3.70377389	      2.94410621
      0.14000000	    -11.72335416	     -2.15359839	     -2.26680138	     -0.52457709	      0.98088386	      0.45586639	     18.71004103	      4.03085106	     -0.94313599	    -18.55028824	     16.52309257	     -7.64854417	     19.11922103	     -2.42360677	     -3.69090667	    -19.15830380	     18.74483069	     -2.13818725	      5.49260343	      3.71851053	      2.89287487
      0.15000000	    -11.72485310	     -2.15323452	     -2.30366040	     -0.52452951	      0.98089682	      0.45561862	     18.70780544	      4.02267590	     -0.91121973	    -18.54550550	     16.51561245	     -7.63952756	     19.10303788	     -2.41270141	     -3.71482440	    -19.13991678	     18.75011260	     -2.14813987	      5.50752961	      3.72548331	      2.84356263
      0.16000000	    -11.72740305	     -2.15404828	     -2.33790046	     -0.52447237	      0.98090821	      0.45536846	     18.70238380	      4.01607311	     -0.87635675	    -18.53437782	     16.50643433	     -7.62856076	     19.08999723	     -2.40214207	     -3.73553471	    -19.12586757	     18.75541956	     -2.16102051	      5.52325612	      3.73126138	      2.80428596
      0.17000000	    -11.73058677	     -2.15797451	     -2.36843113	     -0.52439718	      0.98091876	      0.45511984	     18.69241789	      4.01295145	     -0.83756557	    -18.51685690	     16.49448238	     -7.61301180	     19.07846238	     -2.39498014	     -3.75570581	    -19.11467186	     18.76209757	     -2.18086440	      5.54304749	      3.73691979	      2.77367600
      0.18000000	    -11.73099500	     -2.16389272	     -2.39270636	     -0.52435603	      0.98092367	      0.45483605	     18.68896291	      4.00467452	     -0.83537902	    -18.51208494	     16.49304726	     -7.61106880	     19.07505141	     -2.38500126	     -3.75534226	    -19.11998309	     18.76288258	     -2.18356310	      5.54939528	      3.74749389	      2.76622683
      0.19000000	    -11.74170523	     -2.17429036	     -2.41543063	     -0.52427719	      0.98092577	      0.45456133	     18.67471696	      4.00574493	     -0.79851823	    -18.47190341	     16.47527314	     -7.59187485	     19.07242508	     -2.38278553	     -3.77888428	    -19.10639466	     18.77830093	     -2.21025952	      5.57474993	      3.76313813	      2.73052549
      0.20000000	    -11.74371622	     -2.18154660	     -2.43645922	     -0.52424899	      0.98092859	      0.45426051	     18.67255155	      3.99744882	     -0.79812276	    -18.46442437	     16.47365259	     -7.58984213	     19.07228282	     -2.37239131	     -3.77809130	    -19.11165866	     18.77916908	     -2.21323826	      5.57673956	      3.77596142	      2.72749972
      0.21000000	    -11.75946145	     -2.20013727	     -2.45611665	     -0.52416274	      0.98092407	      0.45397904	     18.65125298	      4.00481494	     -0.77780858	    -18.39949660	     16.45029272	     -7.56659550	     19.08071195	     -2.37882562	     -3.80039595	    -19.11014695	     18.79641643	     -2.24553983	      5.60574617	      3.79862316	      2.71723928
